inDegrees=no
num_controls=7
num_derivatives=13
num_iterations=119
num_multipliers=7
num_parameters=0
num_slacks=7
num_states=26
objective=0.449329
objective_accelerations=0.050903
objective_balance=0.002386
objective_effort=0.019065
objective_height=0.371383
objective_ligament=0.005591
solver_duration=1724.275132
status=Solve_Succeeded
success=true
DataType=double
version=3
OpenSimVersion=4.5
endheader
time	/jointset/ground_pelvis/pelvis_tilt/value	/jointset/ground_pelvis/pelvis_tx/value	/jointset/ground_pelvis/pelvis_ty/value	/jointset/hip_l/hip_flexion_l/value	/jointset/hip_l/hip_adduction_l/value	/jointset/hip_l/hip_rotation_l/value	/jointset/back/lumbar_extension/value	/jointset/patellofemoral_l/patellar_flexion_l/value	/jointset/knee_l/knee_flexion_l/value	/jointset/knee_l/knee_adduction_l/value	/jointset/knee_l/knee_rotation_l/value	/jointset/ankle_l/ankle_angle_l/value	/jointset/subtalar_l/subtalar_angle_l/value	/jointset/ground_pelvis/pelvis_tilt/speed	/jointset/ground_pelvis/pelvis_tx/speed	/jointset/ground_pelvis/pelvis_ty/speed	/jointset/hip_l/hip_flexion_l/speed	/jointset/hip_l/hip_adduction_l/speed	/jointset/hip_l/hip_rotation_l/speed	/jointset/back/lumbar_extension/speed	/jointset/patellofemoral_l/patellar_flexion_l/speed	/jointset/knee_l/knee_flexion_l/speed	/jointset/knee_l/knee_adduction_l/speed	/jointset/knee_l/knee_rotation_l/speed	/jointset/ankle_l/ankle_angle_l/speed	/jointset/subtalar_l/subtalar_angle_l/speed	/forceset/tau_hip_flexion_l	/forceset/tau_hip_adduction_l	/forceset/tau_hip_rotation_l	/forceset/tau_knee_flexion_l	/forceset/tau_ankle_angle_l	/forceset/tau_subtalar_angle_l	/forceset/tau_lumbar_extension	lambda_cid13_p0	lambda_cid13_p1	lambda_cid13_p2	lambda_cid13_p3	lambda_cid13_p4	lambda_cid13_p5	lambda_cid14_p0	/jointset/ground_pelvis/pelvis_tilt/accel	/jointset/ground_pelvis/pelvis_tx/accel	/jointset/ground_pelvis/pelvis_ty/accel	/jointset/hip_l/hip_flexion_l/accel	/jointset/hip_l/hip_adduction_l/accel	/jointset/hip_l/hip_rotation_l/accel	/jointset/back/lumbar_extension/accel	/jointset/patellofemoral_l/patellar_flexion_l/accel	/jointset/knee_l/knee_flexion_l/accel	/jointset/knee_l/knee_adduction_l/accel	/jointset/knee_l/knee_rotation_l/accel	/jointset/ankle_l/ankle_angle_l/accel	/jointset/subtalar_l/subtalar_angle_l/accel	gamma_cid13_p0	gamma_cid13_p1	gamma_cid13_p2	gamma_cid13_p3	gamma_cid13_p4	gamma_cid13_p5	gamma_cid14_p0
1	-0.3807625573817122	-0.007608314076880849	0.622993761394419	1.501524187150661	-0.4849802418365362	-0.002925631553524113	-0.2617847831644768	1.37023845221481	1.370238452215034	-0.09328462495009919	-0.1745303973343785	0.3672698619335203	0.06142027500302012	-0.01690444951678502	0.01112819441568767	0.00110161399012559	-0.001839211189080116	-0.003286621041018311	0.001577992671629294	0.0001308849200935974	0.001286328271449235	0.001286328271449148	-0.004452050845012114	-0.000119425869715855	0.01946363619898781	0.009142287220048468	-0.2376414238487221	0.03964352529112048	-0.0007192322438806225	-0.3440146696727212	-0.03253298315238479	0.02399626635185192	0.2224953282936453	-49.10400541637372	-2.562382666736469	0.9162094657895551	12.3491334398918	-627.4578112222363	-61.00038733532458	-1.754906012723084	1.079595099951986	0.07489554624259397	1.693399931632703	-5.492914588471093	0.1265182398472368	-2.259172553657848	-0.01334602191902961	-5.223107815619519	-5.223107815619543	-0.5500138904468141	-0.02137317678061762	-1.483384696379888	-0.846361911295138	5.960519255703579e-09	2.589727345084875e-08	-1.507331439503244e-08	4.587637025088775e-09	-5.297266829255704e-10	3.276852632951974e-08	3.155479885861543e-09
1.01	-0.3808783528269341	-0.007493326177623973	0.6230893096104222	1.501232316749115	-0.4850058798511601	-0.003024188062762159	-0.2617833708937949	1.369990420930423	1.36999042093056	-0.09335366961718337	-0.1745313551490867	0.3673905659626116	0.06147094785249587	-0.006256789178398827	0.01186954887796993	0.01800515217014907	-0.0565235044618299	-0.001825114940557526	-0.02127079538634558	0.0001500475830614689	-0.0508921666824964	-0.05089216668249506	-0.009350176394650312	-4.111143328874208e-05	0.004674169441518136	0.001013867943865195	-0.2375835096992047	0.03973611954055395	-0.000739943962575237	-0.3438006249602841	-0.03269676319944823	0.02401930390419519	0.222440461074039	-49.14377639562819	-2.571298671124246	0.9243410373696773	12.30303729091974	-627.317335678252	-61.00229819275209	-1.760667578156373	1.057028387623882	0.0737815151556421	1.688397073547958	-5.454482913566237	0.1583432790323737	-2.294961052662029	0.00931916552314028	-5.215156225210134	-5.215156225209898	-0.4587069780891471	0.02709682782474368	-1.477176217215201	-0.7928517373921983	-1.986423686446162e-10	2.16320122642411e-08	3.422133725088954e-08	7.978488078507557e-09	-1.055662395531701e-08	6.044285645161719e-08	-6.601929330863411e-09
1.02	-0.3808877362914047	-0.007370919509957304	0.6233538064706977	1.500393944171463	-0.4850164275080022	-0.003350678276737727	-0.2617818126454635	1.369220617518512	1.369220617518562	-0.09347149455793584	-0.174530597204633	0.3673632856137712	0.06144098254888724	0.004377946633665308	0.01261194809764602	0.03489134284460182	-0.1111396464101518	-0.0002685494846222616	-0.04400874827611058	0.0001600804507671789	-0.1030680972335643	-0.1030680972335616	-0.01420810557896196	0.0002237259619517408	-0.0101332393873394	-0.006985343396810114	-0.2375255955496821	0.03982871378998963	-0.0007606556812759905	-0.3435865802478474	-0.03286054324651208	0.02404234145654167	0.2223855938544372	-49.19204373419172	-2.578769651427134	0.9322906581031254	12.29502868844483	-627.2960105696276	-60.98604093107956	-1.778020293353499	1.077010194687559	0.07510449772137764	1.689930430518558	-5.479284323585517	0.1455301109421009	-2.237005520015904	-0.01517198097144614	-5.222594935043965	-5.22259493504399	-0.5419746173815175	0.01593141498199137	-1.486973110657437	-0.8205203241935765	-6.55040797758914e-09	1.595246109616278e-08	8.358357664361485e-08	1.082012102126849e-08	-2.052965759325774e-08	8.67794809977953e-08	-1.651030015429255e-08
1.03	-0.3807908215641399	-0.00724107116999541	0.623787009856245	1.499009894066059	-0.4850108256005751	-0.003903821813827681	-0.2617802324019559	1.367929154759925	1.367929154759814	-0.09363764598917844	-0.1745260826620372	0.3671878241015545	0.06133184521751249	0.01500399900410166	0.01335907680380174	0.05173959258112563	-0.1656442436716661	0.001415952162800745	-0.06658453833361773	0.000151579937584871	-0.1552154528052412	-0.1552154528052411	-0.01900935505990917	0.0007282602712158797	-0.02496374626111678	-0.01480283002826059	-0.2372251500511563	0.03993422711024271	-0.0008206201018774523	-0.3431645649377975	-0.03288288872556625	0.02410293841625164	0.2221485463509507	-49.17221510375014	-2.624107363410788	0.9572790703917393	12.21206973436239	-626.9482916026324	-60.99122955281349	-1.807138928591969	1.055250824083141	0.07472334188655845	1.680804831789666	-5.432130386419773	0.183946638733106	-2.26257009684653	0.005652666558276311	-5.209450272315547	-5.209450272315917	-0.4472841232081435	0.07510675203330693	-1.481790633513251	-0.7564864370195943	-1.290413893331526e-08	1.02584783976613e-08	1.329465057072259e-07	1.365614969759413e-08	-3.050214160227551e-08	1.131024554870763e-07	-2.642021140227989e-08
1.04	-0.3805876766999994	-0.007103710286007151	0.6243884022564716	1.497081581396243	-0.4849875713872558	-0.004681664121133997	-0.261778868812972	1.366116489564804	1.366116489564533	-0.09385142671717814	-0.1745150443136987	0.3668639172890449	0.0611457082989434	0.02562397400899611	0.01411445690291921	0.06852914578046337	-0.2199921592925959	0.003261911693849396	-0.08894850232026169	0.0001167495463983454	-0.2073085845403582	-0.2073085845403606	-0.0237339649311291	0.001528487105867071	-0.03982229944590855	-0.02238526083566355	-0.2369247045526252	0.04003974043050787	-0.0008805845224684462	-0.3427425496277471	-0.03290523420461738	0.02416353537598212	0.2219114988474668	-49.16088956646701	-2.667859226897447	0.9819036432156871	12.16735215579063	-626.7195110227965	-60.97857145466151	-1.848266916649041	1.075794721579162	0.07675477631374582	1.678191123081344	-5.447947995468633	0.1778216876672021	-2.19464030584329	-0.0204379565722907	-5.211750167731982	-5.211750167731974	-0.5266466954360749	0.075069920059346	-1.492582372860292	-0.7735091593840986	-2.005439540113589e-08	1.493025962310408e-09	1.815370668542572e-07	1.600756482430921e-08	-4.071595632257411e-08	1.36579396233888e-07	-3.657026829876231e-08
1.05	-0.3802783356296933	-0.00695872568488919	0.6251573308765291	1.494610667011891	-0.4849450385311637	-0.005682025221204362	-0.2617779815335495	1.363783252344451	1.363783252344267	-0.09411206615222113	-0.1744945697067448	0.3663912714189885	0.06088494910824085	0.03624525449327473	0.01488660866334999	0.08524022498049828	-0.2741544703373116	0.005273687490512938	-0.1110828674343767	5.737588813619443e-05	-0.2593211709791015	-0.2593211709790982	-0.02837843026890468	0.002613024156289985	-0.05471263130607074	-0.02972326264806788	-0.2364078145152233	0.04009781249986342	-0.0009799913502828203	-0.3421173580045599	-0.03279422281599745	0.02429413373144207	0.2215209017394051	-49.08339985550183	-2.767972872316141	1.03193404919819	12.03038428610837	-626.1837942103642	-61.02682559355694	-1.901794666973418	1.055443630446792	0.0780708697130007	1.665103040179404	-5.394939864870501	0.2171803517229978	-2.216738624832354	0.0008133620207971047	-5.193350151072219	-5.193350151071379	-0.4310380470922497	0.132185561750807	-1.48812144955366	-0.7074747232616434	-2.722954329120948e-08	-7.368409902317006e-09	2.301034915038953e-07	1.834383577759898e-08	-5.093731262760023e-08	1.599673984262476e-07	-4.67278297467602e-08
1.06	-0.3798627519708261	-0.006805894467405846	0.6260928776329299	1.491599216075914	-0.4848815229518938	-0.006902510774539412	-0.2617777879042127	1.360930421805883	1.360930421805788	-0.09441868855946765	-0.1744618417364428	0.3657695496589385	0.06055210409319557	0.04687249172133595	0.0156837801759961	0.1018527730491265	-0.328099469617926	0.007458456329457122	-0.1329733929739617	-2.198047116714227e-05	-0.3112272481829142	-0.3112272481829055	-0.03293055937243808	0.003979159775395031	-0.06963747744461192	-0.03680242570419352	-0.2358909244778153	0.04015588456922983	-0.001079398178083171	-0.3414921663813721	-0.03268321142737494	0.02442473208692023	0.221130304631347	-49.01443179367285	-2.866329548540222	1.081381643566309	11.93167861074498	-625.7664981742723	-61.05786280741058	-1.968189570632297	1.076986070335664	0.08175872675682769	1.658484896800016	-5.404485642648402	0.2124202961233193	-2.14587239093728	-0.02443449678052752	-5.190448320745885	-5.190448320745912	-0.5081794485876435	0.1313896337957533	-1.499485228536069	-0.7217414081283607	-3.392929913636753e-08	-1.570774104411944e-08	2.770267549586875e-07	2.069055889242946e-08	-6.092461801097178e-08	1.806257119383234e-07	-5.616812546042176e-08
